<?xml version="1.0" encoding="utf-8"?>
<!-- Generator: Adobe Illustrator 16.0.0, SVG Export Plug-In . SVG Version: 6.00 Build 0)  -->
<!DOCTYPE svg PUBLIC "-//W3C//DTD SVG 1.0//EN" "http://www.w3.org/TR/2001/REC-SVG-20010904/DTD/svg10.dtd">
<svg version="1.0" id="Layer_1" xmlns="http://www.w3.org/2000/svg" xmlns:xlink="http://www.w3.org/1999/xlink" x="0px" y="0px"
	 width="152.793px" height="152.899px" viewBox="0 0 152.793 152.899" enable-background="new 0 0 152.793 152.899"
	 xml:space="preserve">
<g>
	<path d="M152.793,87.303c-0.707,1.815-1.469,3.597-2.332,5.317c-2.218,4.421-4.88,8.585-7.943,12.511
		c-3.082,3.926-6.566,7.43-10.493,10.492c-3.926,3.082-8.09,5.725-12.511,7.943s-9.152,3.926-14.196,5.1
		c-5.047,1.176-10.184,1.762-15.43,1.762c-3.687,0-7.339-0.293-10.915-0.881c-3.595-0.605-7.063-1.449-10.383-2.55
		s-6.549-2.478-9.668-4.091c-3.118-1.613-6.072-3.447-8.841-5.467c-2.771-2.037-5.395-4.273-7.871-6.751
		c-2.476-2.476-4.733-5.1-6.751-7.869c-2.018-2.771-3.853-5.724-5.467-8.843c-1.632-3.119-2.989-6.346-4.09-9.667
		c-1.101-3.32-1.944-6.788-2.551-10.384c-0.604-3.594-0.898-7.246-0.898-10.932c0-6.09,0.826-12.052,2.44-17.867
		c1.632-5.816,3.889-11.191,6.787-16.144c2.898-4.935,6.42-9.484,10.566-13.629c4.146-4.146,8.695-7.668,13.631-10.567
		C59.048,2.931,62.394,1.334,65.916,0H25.88c-5.321,5.401-9.875,11.28-13.626,17.646c-3.87,6.567-6.879,13.74-9.024,21.5
		C1.082,46.924,0,54.867,0,63.012C0,71.156,1.082,79.1,3.21,86.859c2.146,7.76,5.155,14.934,9.025,21.5
		c3.871,6.568,8.585,12.621,14.126,18.16c5.54,5.541,11.593,10.255,18.161,14.126c6.566,3.871,13.739,6.879,21.5,9.025
		c7.777,2.146,15.721,3.229,23.865,3.229c8.144,0,16.088-1.082,23.848-3.211c7.759-2.146,14.933-5.155,21.499-9.024
		c6.332-3.731,12.182-8.258,17.559-13.541V87.303z"/>
	<path d="M48.778,103.223c0,0.605,0.292,0.898,0.898,0.898c0.348,0,0.77-0.092,1.266-0.293l51.474-23.389
		c0.899-0.44,1.835-1.155,2.808-2.129c0.973-0.973,1.669-1.906,2.127-2.807l23.371-51.456c0.24-0.495,0.368-0.917,0.368-1.266
		c0-0.605-0.331-0.898-0.973-0.898c-0.35,0-0.771,0.092-1.268,0.293L77.395,45.548c-0.459,0.202-0.936,0.496-1.43,0.862
		c-0.514,0.367-0.991,0.771-1.432,1.229c-0.44,0.459-0.862,0.936-1.229,1.432c-0.367,0.513-0.661,0.991-0.862,1.43L49.07,101.957
		C48.869,102.452,48.778,102.874,48.778,103.223z M83.669,56.793c1.705-1.743,3.778-2.623,6.219-2.623s4.53,0.862,6.255,2.585
		c1.724,1.726,2.587,3.816,2.587,6.256c0,2.44-0.863,4.53-2.587,6.255c-1.725,1.724-3.814,2.586-6.255,2.586
		s-4.531-0.862-6.255-2.586c-1.726-1.726-2.587-3.815-2.587-6.255C81.046,60.572,81.926,58.5,83.669,56.793z"/>
	<path d="M123.898,4.787c4.935,2.898,9.484,6.42,13.63,10.567c4.146,4.145,7.668,8.695,10.565,13.629
		c1.814,3.099,3.383,6.364,4.699,9.798V9.021c0-4.982-4.04-9.021-9.022-9.021h-29.928C117.376,1.335,120.732,2.927,123.898,4.787z"
		/>
</g>
</svg>
