<?xml version="1.0" encoding="utf-8"?>
<!-- Generator: Adobe Illustrator 16.0.0, SVG Export Plug-In . SVG Version: 6.00 Build 0)  -->
<!DOCTYPE svg PUBLIC "-//W3C//DTD SVG 1.0//EN" "http://www.w3.org/TR/2001/REC-SVG-20010904/DTD/svg10.dtd">
<svg version="1.0" id="Layer_4" xmlns="http://www.w3.org/2000/svg" xmlns:xlink="http://www.w3.org/1999/xlink" x="0px" y="0px"
	 width="252.75px" height="83px" viewBox="0 0 252.75 83" enable-background="new 0 0 252.75 83" xml:space="preserve">
<path fill="#CE1141" d="M1.147,33.968c0-18.156,29.433-32.872,65.741-32.872c36.308,0,65.739,14.716,65.739,32.872
	c0,18.154-29.431,32.873-65.739,32.873C30.58,66.841,1.147,52.122,1.147,33.968L1.147,33.968z"/>
<path fill="#FFFFFF" d="M114.819,31.123c0,0.512-0.706,1.704-0.823,1.937c0.318,0.128,2.364,0.023,3.479,0.023
	c1.135,0,2.804,0.375,2.056,2.243c-0.374,1.025-2.289,2.719-2.988,3.468c-0.417,0.441-3.135,3.05-4.017,4.747
	c-0.439,0.853-1.188,2.016-0.554,3.175c0.243,0.449,0.879,0.841,1.866,0.75c3.034-0.289,5.506-4.39,6.533-5.698
	c0.38,0.141,1.403,0,1.403,0c-0.652,1.076-1.259,2.381-2.095,3.409c-0.8,0.963-1.919,2.431-3.417,3.316
	c-1.847,1.1-4.29,1.309-5.762,0.177c-1.24-0.956-1.709-2.698-1.204-4.506c0.577-2.053,1.896-3.291,3.03-4.788
	c0.626-0.833,2.866-2.511,3.657-3.396c0.82-1.148-0.748-0.982-0.748-0.982c0.469-0.046-2.244,0-2.244,0s-9.058,10.413-13.725,12.937
	c-1.96,1.059-4.483,2.428-7.848,1.217c-2.204-0.799-2.571-2.183-2.801-2.897c-0.873-2.717,0.469-4.857,1.74-6.986
	c0.792-1.323,1.94-2.579,3.024-3.663c1.215-1.212,2.43-1.868,3.084-2.145c1.827-0.785,4.765-1.651,6.815-0.282
	c0.564,0.372,1.777,1.333,1.476,3.03c-0.308,1.733-1.754,3.833-3.529,4.816c-0.433,0.238-2.378,1.284-3.176,1.587
	c-0.75,0.28-4.58,1.118-5.605-0.097c-0.531-0.63-1.608,2.882,0.377,3.739c2.142,0.925,4.291-0.31,6.07-1.119
	c2.051-0.939,3.76-2.363,5.321-3.829c2.804-2.645,7.914-8.409,8.504-10.182H114.819L114.819,31.123z"/>
<path fill="#FFFFFF" d="M38.417,36.082c3.206-3.479,7.833-6.041,11.877-4.058c3.747,1.838,0.849,8.494-2.063,11.777
	c-4.206,4.739-9.655,5.639-11.547,3.747c-1.54-1.54-1.722-4.078-1.021-6.556c-2.138,1.663-5.32,4.262-6.094,4.787
	c-2.773,1.875-4.363,2.343-6.042,2.624c-2.063,0.339-4.483,0.09-7.097-0.844c-4.562-1.627-6.074-4.947-6.48-8.565
	c-0.243-2.158,0.741-6.523,1.902-9.222c0.786-1.825,1.963-3.599,3.098-5.177c1.292-1.792,6.243-7.292,9.752-9.683
	c1.782-1.208,5.737-3.498,7.7-4.244c1.478-0.561,4.682-1.484,7.192-1.881c4.667-0.733,8.774,0.11,10.667,1.902
	c1.751,1.66,2.124,3.621,1.189,5.771c-0.654,1.508-0.903,2.333-1.772,3.365c-1.028,1.212-1.774,2.519-3.212,3.477
	c-1.27-0.117-4.403-0.117-4.403-0.117c1.73-1.118,3.163-2.437,4.627-4.391c1.118-1.491,1.959-3.078,1.917-4.022
	c-0.063-1.352-0.43-2.253-1.266-2.85c-0.984-0.704-2.333-0.985-3.875-0.915c-1.738,0.077-3.519,0.364-4.962,0.985
	c-4.519,1.945-8.911,4.498-11.895,6.989c-2.806,2.342-6.19,5.625-8.312,8.498c-1.656,2.251-3.726,6.7-3.803,10.001
	c-0.423,2.384,0.105,4.688,1.268,6.268c0.944,1.293,2.745,1.858,4.216,2.133c2.522,0.464,4.031,0.307,6.275-0.69
	C30.308,43.39,38.417,36.082,38.417,36.082L38.417,36.082z"/>
<path fill="#FFFFFF" d="M68.902,37.336c5.168,0.95,9.82-6.495,9.82-6.495l3.769-0.067l-1.345,2.309c0,0,2.137-0.751,3.244-0.618
	c1.559,0.059,3.575,1.084,4.157,3.763c0.707,3.27-3.76,11.583-9.824,12.449c-1.962,0.282-3.178-0.092-4.296-0.838
	c-1.651-1.1-1.52-3.201-1.873-2.986c-0.731,0.912-9.708,13.835-9.708,13.835l-3.976,0.459L73.303,38.41
	c-0.592,0.141-3.617,0.635-4.837,0.268c-0.731,1.912-1.923,3.819-3.114,5.164c-4.205,4.741-9.657,5.639-11.546,3.747
	c-2.601-2.599-1.108-7.843,1.53-11.241c3.445-4.432,7.948-6.306,12.08-4.28C69.266,32.973,69.495,35.06,68.902,37.336L68.902,37.336
	z"/>
<path fill="#CE1141" d="M101.94,36.168c-0.994,1.678-2.393,2.719-4.075,3.637c-0.681,0.377-1.671,0.933-2.755,0.887
	c-0.595-0.023-1.074-0.233-1.166-0.556c-0.426-1.49,1.894-3.532,2.332-3.973c1.169-1.159,3.42-2.223,5.1-1.756
	C101.975,34.578,102.5,35.226,101.94,36.168L101.94,36.168z"/>
<path fill="#CE1141" d="M57.782,37.418c1.699-2.772,5.353-4.586,7.34-3.516c2.479,1.335,0.513,5.738-1.453,7.953
	c-2.84,3.201-6.054,4.167-7.263,2.825C54.952,43.077,56.33,39.791,57.782,37.418L57.782,37.418z"/>
<path fill="#CE1141" d="M40.658,37.375c1.702-2.776,5.354-4.586,7.343-3.514c2.478,1.333,0.512,5.733-1.451,7.955
	c-2.84,3.194-6.054,4.164-7.266,2.826C37.831,43.035,39.208,39.747,40.658,37.375L40.658,37.375z"/>
<path fill="#CE1141" d="M76.835,38.213c1.697-2.776,5.349-4.59,7.338-3.516c2.481,1.332,0.512,5.738-1.453,7.946
	c-2.84,3.201-6.052,4.173-7.263,2.835C74.005,43.871,75.379,40.582,76.835,38.213L76.835,38.213z"/>
<path d="M108.057,80.878h10.757l-7.156-26.316H98.351l-6.652,26.316h10.593l0.699-4.271h4.503L108.057,80.878L108.057,80.878z
	 M106.466,71.013h-2.581l1.125-8.114L106.466,71.013L106.466,71.013z"/>
<polygon points="115.636,61.377 121.529,61.377 121.562,80.878 131.719,80.878 131.719,61.377 137.648,61.377 137.648,54.562 
	115.636,54.562 115.636,61.377 "/>
<polygon points="155.197,80.878 166.676,80.878 159.599,67.398 166.482,54.595 155.099,54.595 149.137,66.349 149.11,54.595 
	139.144,54.595 139.144,80.917 149.406,80.917 149.435,68.33 155.197,80.878 "/>
<polygon points="168.037,80.878 178.302,80.878 178.302,54.562 168.037,54.562 168.037,80.878 "/>
<polygon points="195.615,80.878 208.199,80.878 208.199,54.562 199.491,54.562 199.491,67.93 194.129,54.562 181.48,54.562 
	181.48,80.878 190.118,80.878 190.158,66.408 195.615,80.878 "/>
<path d="M221.832,59.095c1.06-0.072,2.089,0.859,1.948,2.617h9.308c-0.332-6.723-5.398-7.881-10.561-7.943
	c-7.743-0.138-12.315,2.879-12.181,9.025c0.092,5.405,4.169,6.395,5.795,6.861l3.602,1.063c2.394,0.722,4.309,1.161,4.24,3.542
	c-0.063,1.751-1.19,2.275-1.987,2.275c-0.725-0.032-2.182-0.19-1.958-3.338h-9.826c0.063,4.866,2.45,8.586,11.751,8.71
	c6.727,0.065,12.515-2.558,12.217-9.078c-0.236-4.998-2.687-6.618-6.428-7.747l-5.654-1.718c-1.128-0.328-1.984-1.03-2.06-2.185
	c-0.092-1.128,0.804-2.085,1.896-2.118L221.832,59.095L221.832,59.095z"/>
<path d="M249.508,53.821c-1.305,1.309-2.879,1.965-4.729,1.965s-3.424-0.656-4.723-1.965c-1.292-1.305-1.941-2.884-1.941-4.74
	c0-1.837,0.655-3.408,1.961-4.711c1.292-1.299,2.859-1.946,4.703-1.946c1.85,0,3.424,0.647,4.729,1.946
	c1.306,1.297,1.955,2.868,1.955,4.711C251.463,50.932,250.813,52.509,249.508,53.821z M240.719,45.023
	c-1.115,1.124-1.672,2.478-1.672,4.067c0,1.6,0.551,2.966,1.666,4.094c1.114,1.128,2.466,1.692,4.066,1.692
	c1.594,0,2.945-0.564,4.066-1.692c1.115-1.128,1.673-2.494,1.673-4.094c0-1.589-0.558-2.943-1.673-4.067
	c-1.128-1.128-2.479-1.692-4.066-1.692C243.191,43.331,241.841,43.896,240.719,45.023z M244.648,45.397c0.911,0,1.58,0.087,2,0.264
	c0.761,0.314,1.142,0.935,1.142,1.858c0,0.654-0.243,1.138-0.715,1.448c-0.256,0.162-0.61,0.282-1.063,0.354
	c0.57,0.092,0.99,0.33,1.259,0.718c0.263,0.387,0.4,0.766,0.4,1.135v0.535c0,0.17,0.007,0.354,0.013,0.548
	c0.014,0.193,0.033,0.321,0.065,0.38l0.046,0.092h-1.206c-0.007-0.023-0.014-0.049-0.021-0.072c-0.006-0.023-0.013-0.052-0.02-0.082
	l-0.026-0.236v-0.581c0-0.846-0.229-1.405-0.695-1.678c-0.269-0.157-0.747-0.236-1.436-0.236h-1.018v2.884h-1.292v-7.332H244.648z
	 M246.045,46.552c-0.328-0.182-0.846-0.272-1.567-0.272h-1.103v2.656h1.168c0.545,0,0.958-0.056,1.233-0.164
	c0.505-0.2,0.754-0.582,0.754-1.146C246.53,47.091,246.366,46.734,246.045,46.552z"/>
</svg>
