<?xml version="1.0" encoding="utf-8"?>
<!-- Generator: Adobe Illustrator 16.0.0, SVG Export Plug-In . SVG Version: 6.00 Build 0)  -->
<!DOCTYPE svg PUBLIC "-//W3C//DTD SVG 1.0//EN" "http://www.w3.org/TR/2001/REC-SVG-20010904/DTD/svg10.dtd">
<svg version="1.0" id="Layer_1" xmlns="http://www.w3.org/2000/svg" xmlns:xlink="http://www.w3.org/1999/xlink" x="0px" y="0px"
	 width="50px" height="35px" viewBox="0 0 50 35" enable-background="new 0 0 50 35" xml:space="preserve">
<g>
	<path d="M49.543,32.196c0,1.367-1.029,2.477-2.301,2.477H2.757c-1.271,0-2.3-1.109-2.3-2.477V21.199c0-1.368,1.029-2.477,2.3-2.477
		h44.485c1.271,0,2.301,1.108,2.301,2.477V32.196z"/>
	<path fill="#FFFFFF" d="M3.744,31.944c-0.202,0-0.367-0.164-0.367-0.366v-9.762c0-0.202,0.165-0.366,0.367-0.366h42.511
		c0.202,0,0.366,0.164,0.366,0.366v9.762c0,0.202-0.164,0.366-0.366,0.366H3.744z"/>
	<circle cx="6.692" cy="26.697" r="1.634"/>
	<circle cx="11.433" cy="26.697" r="1.633"/>
	<path d="M33.248,26.697c0,0.902-0.732,1.635-1.634,1.635H25.08c-0.903,0-1.635-0.732-1.635-1.635l0,0
		c0-0.902,0.732-1.634,1.635-1.634h6.534C32.516,25.063,33.248,25.795,33.248,26.697L33.248,26.697z"/>
	<path d="M44.827,26.697c0,0.902-0.732,1.635-1.634,1.635h-6.536c-0.902,0-1.633-0.732-1.633-1.635l0,0
		c0-0.902,0.73-1.634,1.633-1.634h6.536C44.095,25.063,44.827,25.795,44.827,26.697L44.827,26.697z"/>
	<path d="M25,12.235c0.765,0,1.386,0.732,1.386,1.634v6.534h-2.772v-6.534C23.613,12.967,24.234,12.235,25,12.235L25,12.235z"/>
	<path d="M17.281,6.72c-0.331,0-0.662-0.118-0.924-0.358c-0.562-0.51-0.603-1.38-0.091-1.941c0.149-0.164,3.708-4.009,8.745-4.092
		c3.097-0.051,6.025,1.315,8.693,4.059c0.528,0.545,0.517,1.415-0.027,1.944s-1.415,0.516-1.943-0.028
		c-2.119-2.179-4.369-3.26-6.678-3.227c-3.863,0.063-6.729,3.163-6.759,3.194C18.026,6.568,17.655,6.72,17.281,6.72z"/>
	<path d="M21.587,10.659c-0.313,0-0.629-0.106-0.887-0.325c-0.58-0.49-0.652-1.357-0.162-1.937c0.168-0.198,1.712-1.944,4.125-2.067
		c1.621-0.083,3.17,0.579,4.611,1.965c0.547,0.527,0.563,1.397,0.036,1.943c-0.526,0.547-1.396,0.563-1.942,0.037
		c-0.871-0.839-1.734-1.245-2.564-1.2c-1.239,0.063-2.159,1.088-2.167,1.098C22.365,10.494,21.977,10.659,21.587,10.659z"/>
</g>
</svg>
