<?xml version="1.0" encoding="utf-8"?>
<!-- Generator: Adobe Illustrator 16.0.0, SVG Export Plug-In . SVG Version: 6.00 Build 0)  -->
<!DOCTYPE svg PUBLIC "-//W3C//DTD SVG 1.0//EN" "http://www.w3.org/TR/2001/REC-SVG-20010904/DTD/svg10.dtd">
<svg version="1.0" id="Layer_1" xmlns="http://www.w3.org/2000/svg" xmlns:xlink="http://www.w3.org/1999/xlink" x="0px" y="0px"
	 width="697.965px" height="138px" viewBox="0 0 697.965 138" enable-background="new 0 0 697.965 138" xml:space="preserve">
<path fill="#3B6E8F" d="M67.702,5.714H12.138c-3.544,0-6.423,3.124-6.423,6.977v52.484c0,3.857,2.879,6.978,6.423,6.978h55.564
	c3.547,0,6.421-3.121,6.421-6.978V12.691C74.123,8.838,71.249,5.714,67.702,5.714z M46.946,45.898
	c-0.06,0.243-0.306,0.457-0.542,0.54c-1.845,0.643-4.354,0.967-6.868,0.967c-2.509,0-5.021-0.324-6.867-0.967
	c-0.239-0.057-0.461-0.306-0.543-0.54c-1.284-3.687-0.874-9.929,0-13.734c0.061-0.239,0.31-0.455,0.543-0.535
	c1.679-0.587,3.884-0.823,6.146-0.823c2.718,0,5.516,0.338,7.588,0.823c0.242,0.051,0.457,0.3,0.542,0.535
	C48.229,35.852,48.229,42.211,46.946,45.898z"/>
<path fill="#FFE512" d="M69.194,39.412l-14.781,7.051c0,0-1.136,0.686-1.969,0.154c-0.833-0.53-0.68-1.59-0.534-1.894
	c0.151-0.308,0.684-5.081,0.684-6.144c0-1.062-0.381-4.849-0.606-5.533c0,0-0.377-1.438,0.305-1.973
	c0.681-0.528,1.138-0.453,1.665-0.302c0.533,0.151,15.012,7.278,15.012,7.278S69.729,38.809,69.194,39.412z"/>
<path fill="#FFE512" d="M9.765,38.059l14.785-7.047c0,0,1.133-0.68,1.973-0.15c0.833,0.53,0.679,1.595,0.528,1.899
	c-0.154,0.3-0.683,5.076-0.683,6.136c0,1.063,0.381,4.852,0.609,5.536c0,0,0.379,1.439-0.305,1.97
	c-0.684,0.531-1.138,0.458-1.667,0.303c-0.531-0.151-15.008-7.277-15.008-7.277S9.238,38.667,9.765,38.059z"/>
<g>
	<path fill="#FFE512" d="M39.004,68.596l-7.052-14.784c0,0-0.683-1.138-0.151-1.968c0.532-0.834,1.589-0.684,1.894-0.531
		c0.306,0.151,5.082,0.683,6.142,0.683c1.062,0,4.854-0.379,5.535-0.607c0,0,1.44-0.379,1.97,0.299
		c0.53,0.685,0.457,1.139,0.301,1.673c-0.148,0.528-7.276,15.009-7.276,15.009S39.612,69.128,39.004,68.596z"/>
</g>
<path fill="#FFE512" d="M40.198,9.011l7.049,14.783c0,0,0.685,1.135,0.151,1.971c-0.528,0.833-1.586,0.683-1.896,0.53
	c-0.301-0.151-5.075-0.681-6.139-0.681c-1.059,0-4.848,0.379-5.533,0.605c0,0-1.439,0.379-1.973-0.301
	c-0.529-0.684-0.453-1.142-0.297-1.672c0.146-0.528,7.273-15.008,7.273-15.008S39.593,8.484,40.198,9.011z"/>
<path fill="#3B6E8F" d="M442.278,13.443l16.943,40.01l17.019-40.01l9.479,50.367h-5.324l-6.003-32.222h-0.123l-15.047,34.188
	l-14.969-34.188h-0.119l-6.006,32.222h-5.32L442.278,13.443z"/>
<path fill="#3B6E8F" d="M518.153,63.618H513.2v-4.508h-0.122c-2.541,3.61-5.936,5.41-10.021,5.41
	c-8.54,0-13.935-8.115-13.935-17.147c0-9.31,5.27-17.298,13.994-17.298c3.965,0,7.552,2.083,9.962,5.559h0.122v-4.658h4.953V63.618z
	 M494.212,46.944c0,6.394,3.339,12.442,9.534,12.442c6.372,0,9.707-5.767,9.707-12.365c0-6.529-3.652-11.81-9.772-11.81
	C497.915,35.211,494.212,40.843,494.212,46.944z"/>
<path fill="#3B6E8F" d="M532.229,34.936h0.136c2.03-3.125,4.699-4.862,8.272-4.862c8.058,0,9.906,6.524,9.906,14.169v19.375H545.6
	V45.214c0-5.273-0.375-10.002-6.118-10.002c-6.815,0-7.253,7.091-7.253,12.927v15.479h-4.938V30.975h4.938V34.936z"/>
<path fill="#3B6E8F" d="M586.468,63.618h-4.941v-4.508h-0.13c-2.535,3.61-5.942,5.41-10.024,5.41c-8.542,0-13.91-8.115-13.91-17.147
	c0-9.31,5.247-17.298,13.988-17.298c3.952,0,7.534,2.083,9.946,5.559h0.13v-4.658h4.941V63.618z M562.527,46.944
	c0,6.394,3.345,12.442,9.53,12.442c6.381,0,9.722-5.767,9.722-12.365c0-6.529-3.65-11.81-9.789-11.81
	C566.246,35.211,562.527,40.843,562.527,46.944z"/>
<path fill="#3B6E8F" d="M621.833,62.026c0,5.207,0,9.729-2.959,14.027c-2.726,3.892-6.937,5.767-11.27,5.767
	c-8.1,0-14.108-5.767-14.299-15.003h4.964c0.055,6.044,3.967,9.864,9.283,9.864c7.668,0,9.334-6.323,9.334-13.688v-3.885h-0.12
	c-2.355,3.401-6.192,5.41-10.081,5.41c-8.483,0-13.87-7.977-13.87-17.074c0-9.17,5.454-17.372,14.06-17.372
	c4,0,7.536,2.01,9.892,5.559h0.12v-4.658h4.946V62.026z M597.883,46.944c0,6.394,3.35,12.442,9.541,12.442
	c6.374,0,9.709-5.767,9.709-12.365c0-6.529-3.638-11.81-9.771-11.81C601.606,35.211,597.883,40.843,597.883,46.944z"/>
<path fill="#3B6E8F" d="M633.932,48.483c0.069,6.043,3.901,10.903,9.535,10.903c4.217,0,6.935-2.843,8.85-6.737l4.208,2.709
	c-2.776,5.833-7.482,9.161-13.428,9.161c-8.659,0-14.222-7.43-14.222-16.801c0-9.656,4.993-17.644,14.102-17.644
	c9.34,0,14.295,8.679,13.805,18.409H633.932z M651.576,43.758c-0.687-4.72-4.21-8.547-8.529-8.547c-4.27,0-8.241,3.827-8.854,8.547
	H651.576z"/>
<path fill="#3B6E8F" d="M668.259,34.526h0.116c1.749-2.581,3.223-4.452,6.463-4.452c1.662,0,3.01,0.626,4.45,1.524l-2.368,5.077
	c-0.983-0.765-1.672-1.464-2.961-1.464c-5.45,0-5.7,7.855-5.7,12.085v16.321h-4.942V30.975h4.942V34.526z"/>
<g>
	<path fill="#3B6E8F" d="M681.852,23.963h-1.027v-9.252H678.6v-1.073h5.482v1.073h-2.23V23.963z"/>
	<path fill="#3B6E8F" d="M686.332,13.048l3.339,8.669l3.35-8.669l1.859,10.916h-1.04l-1.189-6.983h-0.018l-2.962,7.405l-2.951-7.405
		h-0.026l-1.175,6.983h-1.05L686.332,13.048z"/>
</g>
<g>
	<path fill="#3B6E8F" d="M87.246,6.38h13.114l0.241,0.326v65.077l-0.241,0.334H87.246l-0.23-0.334V6.707L87.246,6.38z M133.592,6.38
		h13.122l0.216,0.326v65.077l-0.216,0.334h-13.122l-0.244-0.334V47.268l-26.678,0.079l-0.103-14.461l26.781-0.09V6.707L133.592,6.38
		z"/>
	<path fill="#3B6E8F" d="M197.881,5.587c0.257,0.247,3.708,8.861,10.328,25.814l16.061,40.216l-0.131,0.13h-16.478
		c-0.222,0-1.623-3.435-4.228-10.339l-0.558-0.909h-15.7h-3.078l-5.687-0.035l5.988-14.208h4.267h3.65h5.092v-0.138
		c-5.84-14.977-8.947-22.783-9.322-23.468l-19.222,49.097h-16.491l-0.236-0.316l26.389-65.706l0.104-0.138H197.881z"/>
	<path fill="#3B6E8F" d="M238.856,6.274h49.319l0.242,0.345v13.734l-0.242,0.314h-45.491v37.844h45.491l0.242,0.329
		c0,3.172-1.078,6.411-3.258,9.731c-1.805,2.057-3.943,3.088-6.404,3.088h-40.031c-4.719,0-7.818-3.347-9.334-10.059l-0.325-3.529
		V19.883c0-4.872,1.526-8.8,4.584-11.756C235.175,6.908,236.914,6.274,238.856,6.274z"/>
	<path fill="#3B6E8F" d="M304.348,6.274h49.328l0.234,0.345v13.734l-0.234,0.314h-45.513v37.844h45.513l0.234,0.329
		c0,3.172-1.084,6.411-3.257,9.731c-1.813,2.057-3.93,3.088-6.4,3.088h-40.05c-4.709,0-7.813-3.347-9.319-10.059l-0.328-3.529
		V19.883c0-4.872,1.533-8.8,4.588-11.756C300.66,6.908,302.398,6.274,304.348,6.274z"/>
	<path fill="#3B6E8F" d="M360.276,6.743h49.661c4.533,0,7.585,3.351,9.124,10.045c0.175,1.292,0.303,2.062,0.428,2.307v14.986
		l-0.684,3.551c-1.675,5.912-4.593,8.859-8.728,8.859h-23.584l-7.543-13.185l26.839,0.027v-12.2h-32.044v0.131l-0.096,50.727
		l-0.12,0.126h-13.254l-0.241-0.334V7.059L360.276,6.743z"/>
</g>
<g>
	<path fill="#3B6E8F" d="M394.743,104.955h-1.776v5.511h2.598c1.458,0,2.518-0.758,2.518-2.893
		C398.082,105.266,396.068,104.955,394.743,104.955z"/>
	<path fill="#3B6E8F" d="M423.082,104.955h-2.915v4.925h2.465c1.935,0,2.969-0.619,2.969-2.342
		C425.601,105.782,424.54,104.955,423.082,104.955z"/>
	<path fill="#3B6E8F" d="M367.409,104.955h-2.915v4.925h2.465c1.935,0,2.969-0.619,2.969-2.342
		C369.928,105.782,368.867,104.955,367.409,104.955z"/>
	<path fill="#3B6E8F" d="M514.395,89.05H238.281c-3.724,0-6.749,3.281-6.749,7.331v29.905c0,4.053,3.025,7.332,6.749,7.332h276.113
		c3.727,0,6.746-3.279,6.746-7.332V96.381C521.141,92.331,518.121,89.05,514.395,89.05z M263.247,123.966h-15.929V99.17h15.558
		v5.785h-9.303v3.548h7.872v5.785h-7.872v3.892h9.674V123.966z M292.647,123.966h-5.857l-6.812-13.5l0.239,5.647v7.853h-5.99V99.17
		h5.858l6.812,13.534l-0.239-5.647V99.17h5.99V123.966z M320.749,105.679h-5.619v18.287h-6.255v-18.287h-5.619V99.17h17.493V105.679
		z M347.472,123.966h-15.929V99.17h15.558v5.785h-9.303v3.548h7.872v5.785h-7.872v3.892h9.674V123.966z M376.395,123.966h-6.335
		c-0.159-0.551-0.317-2.135-0.317-4.339c0-3.237-0.425-4.306-3.34-4.306h-1.908v8.645h-6.255V99.17h9.011
		c6.361,0,8.455,2.238,8.455,7.06c0,2.858-0.98,5.27-3.207,6.062c2.015,0.964,3.233,1.584,3.233,6.578
		c0,3.237-0.079,4.339,0.663,4.339V123.966z M396.121,116.251h-3.154v7.715h-6.255V99.17h9.197c5.486,0,8.137,3.271,8.137,8.368
		C404.046,112.876,401.607,116.251,396.121,116.251z M432.067,123.966h-6.335c-0.159-0.551-0.317-2.135-0.317-4.339
		c0-3.237-0.425-4.306-3.34-4.306h-1.908v8.645h-6.255V99.17h9.011c6.361,0,8.455,2.238,8.455,7.06c0,2.858-0.98,5.27-3.207,6.062
		c2.015,0.964,3.233,1.584,3.233,6.578c0,3.237-0.079,4.339,0.663,4.339V123.966z M449.143,123.966h-6.255V99.17h6.255V123.966z
		 M468.468,124.62c-5.035,0-8.322-3.822-8.454-8.3h5.989c0.133,0.896,0.504,1.55,1.034,1.963c0.504,0.413,1.166,0.62,1.775,0.62
		c1.564,0,2.598-0.654,2.598-1.825c0-3.754-10.973-1.171-10.973-10.642c0-5.27,3.498-7.921,8.27-7.921
		c5.301,0,7.713,3.513,8.163,7.852h-5.937c-0.106-0.86-0.451-1.377-0.901-1.688c-0.451-0.31-1.008-0.447-1.617-0.447
		c-1.378,0-1.987,0.517-1.987,1.412c0,3.719,10.973,1.412,10.973,10.435C477.4,121.831,473.716,124.62,468.468,124.62z
		 M504.176,123.966h-15.929V99.17h15.558v5.785h-9.303v3.548h7.872v5.785h-7.872v3.892h9.674V123.966z"/>
</g>
</svg>
