<?xml version="1.0" encoding="utf-8"?>
<!-- Generator: Adobe Illustrator 16.0.0, SVG Export Plug-In . SVG Version: 6.00 Build 0)  -->
<!DOCTYPE svg PUBLIC "-//W3C//DTD SVG 1.0//EN" "http://www.w3.org/TR/2001/REC-SVG-20010904/DTD/svg10.dtd">
<svg version="1.0" id="Layer_1" xmlns="http://www.w3.org/2000/svg" xmlns:xlink="http://www.w3.org/1999/xlink" x="0px" y="0px"
	 width="258px" height="423px" viewBox="0 0 258 423" enable-background="new 0 0 258 423" xml:space="preserve">
<path fill="#3B6E8F" d="M230.429,6.232H29.45c-12.826,0-23.234,11.294-23.234,25.241v189.849c0,13.94,10.408,25.229,23.234,25.229
	h200.979c12.836,0,23.234-11.288,23.234-25.229V31.473C253.663,17.526,243.265,6.232,230.429,6.232z M155.341,151.59
	c-0.201,0.882-1.095,1.655-1.951,1.954c-6.666,2.326-15.755,3.485-24.836,3.485c-9.083,0-18.171-1.159-24.845-3.485
	c-0.869-0.207-1.656-1.105-1.952-1.954c-4.646-13.334-3.173-35.92,0-49.684c0.21-0.861,1.107-1.651,1.952-1.936
	c6.071-2.122,14.051-2.974,22.237-2.974c9.83,0,19.955,1.223,27.444,2.974c0.88,0.2,1.655,1.094,1.951,1.936
	C159.989,115.245,159.989,138.255,155.341,151.59z"/>
<g>
	<path fill="#FFE512" d="M235.84,128.132l-53.472,25.493c0,0-4.12,2.479-7.129,0.559c-3.016-1.919-2.472-5.755-1.922-6.857
		c0.545-1.111,2.468-18.374,2.468-22.211c0-3.836-1.374-17.557-2.194-20.015c0,0-1.367-5.215,1.101-7.13
		c2.464-1.931,4.116-1.648,6.027-1.093c1.92,0.544,54.301,26.316,54.301,26.316S237.76,125.942,235.84,128.132z"/>
	<path fill="#FFE512" d="M20.864,123.243L74.34,97.739c0,0,4.109-2.453,7.129-0.54c3.012,1.916,2.465,5.76,1.916,6.853
		c-0.546,1.105-2.468,18.372-2.468,22.211c0,3.841,1.377,17.545,2.199,20.022c0,0,1.365,5.193-1.097,7.124
		c-2.47,1.924-4.119,1.654-6.039,1.098c-1.911-0.549-54.286-26.328-54.286-26.328S18.948,125.436,20.864,123.243z"/>
	<g>
		<path fill="#FFE512" d="M126.622,233.689l-25.501-53.472c0,0-2.47-4.116-0.552-7.133c1.917-3.013,5.764-2.461,6.857-1.918
			c1.092,0.548,18.371,2.468,22.208,2.468c3.842,0,17.552-1.367,20.019-2.194c0,0,5.207-1.368,7.13,1.096
			c1.92,2.464,1.651,4.115,1.093,6.04c-0.543,1.915-26.323,54.29-26.323,54.29S128.81,235.603,126.622,233.689z"/>
	</g>
	<path fill="#FFE512" d="M130.95,18.157l25.495,53.481c0,0,2.472,4.104,0.554,7.126c-1.922,3.017-5.755,2.459-6.862,1.911
		c-1.096-0.545-18.367-2.464-22.209-2.464c-3.831,0-17.546,1.371-20.017,2.196c0,0-5.208,1.374-7.129-1.095
		c-1.925-2.466-1.649-4.118-1.094-6.043c0.54-1.921,26.317-54.29,26.317-54.29S128.756,16.241,130.95,18.157z"/>
</g>
<g>
	<path fill="#3B6E8F" d="M237.813,305.813h-1.115v-10.095h-2.425v-1.167h5.975v1.167h-2.435V305.813z"/>
	<path fill="#3B6E8F" d="M242.704,293.908l3.639,9.455l3.657-9.455l2.028,11.904h-1.137l-1.293-7.611h-0.023l-3.232,8.068
		l-3.214-8.068h-0.03l-1.285,7.611h-1.141L242.704,293.908z"/>
</g>
<g>
	<path fill="#3B6E8F" d="M6.848,256.564h9.77l0.176,0.244v48.489l-0.176,0.245h-9.77l-0.169-0.245v-48.489L6.848,256.564z
		 M41.38,256.564h9.778l0.156,0.244v48.489l-0.156,0.245H41.38l-0.18-0.245v-18.267l-19.881,0.056l-0.075-10.775l19.956-0.067
		v-19.436L41.38,256.564z"/>
	<path fill="#3B6E8F" d="M89.278,255.969c0.196,0.187,2.768,6.607,7.692,19.238l11.976,29.974l-0.103,0.091H96.569
		c-0.166,0-1.213-2.561-3.152-7.697l-0.419-0.681H81.305h-2.292l-4.237-0.027l4.455-10.586h3.184h2.718h3.799v-0.104
		c-4.352-11.165-6.668-16.981-6.949-17.494l-14.324,36.59H55.372l-0.171-0.238l19.657-48.959l0.078-0.105H89.278z"/>
	<path fill="#3B6E8F" d="M119.812,256.486h36.755l0.168,0.248v10.236l-0.168,0.24h-33.904v28.2h33.904l0.168,0.245
		c0,2.362-0.799,4.77-2.424,7.247c-1.342,1.53-2.936,2.296-4.771,2.296h-29.831c-3.514,0-5.824-2.488-6.944-7.49l-0.254-2.627
		v-28.455c0-3.633,1.146-6.56,3.422-8.765C117.066,256.954,118.36,256.486,119.812,256.486z"/>
	<path fill="#3B6E8F" d="M168.605,256.486h36.757l0.177,0.248v10.236l-0.177,0.24h-33.91v28.2h33.91l0.177,0.245
		c0,2.362-0.813,4.77-2.429,7.247c-1.35,1.53-2.934,2.296-4.767,2.296h-29.836c-3.52,0-5.828-2.488-6.949-7.49l-0.25-2.627v-28.455
		c0-3.633,1.143-6.56,3.429-8.765C165.858,256.954,167.163,256.486,168.605,256.486z"/>
	<path fill="#3B6E8F" d="M210.281,256.84h36.998c3.38,0,5.657,2.487,6.806,7.48c0.119,0.963,0.217,1.54,0.322,1.717V277.2
		l-0.521,2.646c-1.245,4.404-3.419,6.606-6.502,6.606h-17.569l-5.625-9.827l19.999,0.02v-9.088h-23.872v0.101l-0.067,37.793
		l-0.092,0.092h-9.877l-0.176-0.245v-48.229L210.281,256.84z"/>
</g>
<g>
	<path fill="#3B6E8F" d="M16.045,309.637l17.014,39.708l17.087-39.708l9.512,49.991h-5.344l-6.024-31.98h-0.127l-15.105,33.928
		L18.03,327.647h-0.116l-6.036,31.98H6.54L16.045,309.637z"/>
	<path fill="#3B6E8F" d="M92.218,359.438h-4.971v-4.483h-0.123c-2.544,3.586-5.96,5.381-10.061,5.381
		c-8.575,0-13.987-8.059-13.987-17.024c0-9.236,5.289-17.167,14.047-17.167c3.979,0,7.578,2.067,10,5.515h0.123v-4.621h4.971
		V359.438z M68.185,342.89c0,6.349,3.352,12.341,9.572,12.341c6.395,0,9.746-5.721,9.746-12.261c0-6.483-3.669-11.73-9.816-11.73
		C71.901,331.239,68.185,336.827,68.185,342.89z"/>
	<path fill="#3B6E8F" d="M106.354,330.971h0.131c2.034-3.105,4.718-4.826,8.307-4.826c8.088,0,9.945,6.478,9.945,14.064v19.229
		h-4.963v-18.271c0-5.238-0.377-9.929-6.144-9.929c-6.844,0-7.277,7.039-7.277,12.835v15.364h-4.965v-32.4h4.965V330.971z"/>
	<path fill="#3B6E8F" d="M160.805,359.438h-4.963v-4.483h-0.131c-2.547,3.586-5.965,5.381-10.066,5.381
		c-8.57,0-13.964-8.059-13.964-17.024c0-9.236,5.259-17.167,14.038-17.167c3.973,0,7.57,2.067,9.992,5.515h0.131v-4.621h4.963
		V359.438z M136.771,342.89c0,6.349,3.348,12.341,9.563,12.341c6.408,0,9.766-5.721,9.766-12.261c0-6.483-3.672-11.73-9.836-11.73
		C140.498,331.239,136.771,336.827,136.771,342.89z"/>
	<path fill="#3B6E8F" d="M196.305,357.859c0,5.171,0,9.65-2.97,13.924c-2.737,3.848-6.964,5.719-11.313,5.719
		c-8.125,0-14.164-5.719-14.353-14.883h4.98c0.058,5.987,3.982,9.787,9.319,9.787c7.698,0,9.37-6.282,9.37-13.586v-3.865h-0.119
		c-2.359,3.376-6.216,5.381-10.126,5.381c-8.515,0-13.918-7.927-13.918-16.957c0-9.095,5.474-17.234,14.104-17.234
		c4.031,0,7.58,1.995,9.939,5.515h0.119v-4.621h4.966V357.859z M172.266,342.89c0,6.349,3.362,12.341,9.574,12.341
		c6.404,0,9.748-5.721,9.748-12.261c0-6.483-3.652-11.73-9.813-11.73C175.999,331.239,172.266,336.827,172.266,342.89z"/>
	<path fill="#3B6E8F" d="M208.454,344.416c0.068,5.999,3.911,10.814,9.572,10.814c4.239,0,6.962-2.821,8.888-6.685l4.219,2.688
		c-2.789,5.803-7.512,9.103-13.481,9.103c-8.693,0-14.277-7.38-14.277-16.68c0-9.581,5.021-17.512,14.163-17.512
		c9.377,0,14.346,8.609,13.855,18.271H208.454z M226.168,339.725c-0.688-4.681-4.23-8.485-8.569-8.485
		c-4.284,0-8.264,3.805-8.893,8.485H226.168z"/>
	<path fill="#3B6E8F" d="M242.913,330.557h0.118c1.758-2.552,3.238-4.412,6.481-4.412c1.677,0,3.032,0.616,4.468,1.512l-2.367,5.031
		c-0.996-0.752-1.683-1.448-2.979-1.448c-5.472,0-5.722,7.797-5.722,11.996v16.203h-4.964v-32.4h4.964V330.557z"/>
</g>
<g>
	<path fill="#3B6E8F" d="M144.269,396.662h-1.502v4.253h2.197c1.233,0,2.129-0.586,2.129-2.232
		C147.093,396.901,145.39,396.662,144.269,396.662z"/>
	<path fill="#3B6E8F" d="M168.24,396.662h-2.465v3.8h2.085c1.636,0,2.511-0.478,2.511-1.807
		C170.371,397.301,169.474,396.662,168.24,396.662z"/>
	<path fill="#3B6E8F" d="M121.148,396.662h-2.466v3.8h2.085c1.637,0,2.511-0.478,2.511-1.807
		C123.279,397.301,122.382,396.662,121.148,396.662z"/>
	<path fill="#3B6E8F" d="M245.478,384.388H11.924c-3.149,0-5.708,2.532-5.708,5.657v23.079c0,3.127,2.559,5.657,5.708,5.657h233.553
		c3.152,0,5.706-2.53,5.706-5.657v-23.079C251.184,386.92,248.63,384.388,245.478,384.388z M33.042,411.333H19.568v-19.135h13.16
		v4.464h-7.869v2.737h6.658v4.465h-6.658v3.003h8.183V411.333z M57.91,411.333h-4.955l-5.762-10.418l0.202,4.357v6.061h-5.067
		v-19.135h4.955l5.762,10.443l-0.202-4.357v-6.086h5.067V411.333z M81.681,397.22h-4.752v14.113h-5.292V397.22h-4.752v-5.021h14.796
		V397.22z M104.284,411.333H90.811v-19.135h13.16v4.464h-7.869v2.737h6.659v4.465h-6.659v3.003h8.183V411.333z M128.749,411.333
		h-5.358c-0.135-0.425-0.269-1.647-0.269-3.349c0-2.498-0.359-3.323-2.825-3.323h-1.614v6.672h-5.291v-19.135h7.622
		c5.381,0,7.152,1.727,7.152,5.447c0,2.206-0.829,4.066-2.712,4.678c1.704,0.743,2.735,1.223,2.735,5.076
		c0,2.498-0.067,3.348,0.561,3.348V411.333z M145.435,405.38h-2.668v5.953h-5.291v-19.135h7.779c4.641,0,6.883,2.523,6.883,6.457
		C152.138,402.774,150.075,405.38,145.435,405.38z M175.841,411.333h-5.359c-0.134-0.425-0.268-1.647-0.268-3.349
		c0-2.498-0.36-3.323-2.825-3.323h-1.614v6.672h-5.292v-19.135h7.623c5.381,0,7.152,1.727,7.152,5.447
		c0,2.206-0.829,4.066-2.713,4.678c1.704,0.743,2.734,1.223,2.734,5.076c0,2.498-0.066,3.348,0.562,3.348V411.333z M190.283,411.333
		h-5.29v-19.135h5.29V411.333z M206.631,411.838c-4.26,0-7.04-2.95-7.152-6.405h5.067c0.112,0.69,0.426,1.196,0.874,1.515
		c0.426,0.319,0.986,0.479,1.502,0.479c1.323,0,2.197-0.505,2.197-1.408c0-2.897-9.282-0.903-9.282-8.212
		c0-4.067,2.959-6.113,6.995-6.113c4.484,0,6.524,2.711,6.906,6.06h-5.022c-0.09-0.665-0.382-1.063-0.762-1.303
		c-0.382-0.238-0.853-0.345-1.368-0.345c-1.166,0-1.682,0.398-1.682,1.09c0,2.87,9.281,1.09,9.281,8.053
		C214.186,409.686,211.069,411.838,206.631,411.838z M236.834,411.333h-13.473v-19.135h13.158v4.464h-7.868v2.737h6.659v4.465
		h-6.659v3.003h8.183V411.333z"/>
</g>
</svg>
