<?xml version="1.0" encoding="utf-8"?>
<!-- Generator: Adobe Illustrator 16.0.0, SVG Export Plug-In . SVG Version: 6.00 Build 0)  -->
<!DOCTYPE svg PUBLIC "-//W3C//DTD SVG 1.0//EN" "http://www.w3.org/TR/2001/REC-SVG-20010904/DTD/svg10.dtd">
<svg version="1.0" id="Layer_1" xmlns="http://www.w3.org/2000/svg" xmlns:xlink="http://www.w3.org/1999/xlink" x="0px" y="0px"
	 width="344.872px" height="277.104px" viewBox="0 0 344.872 277.104" enable-background="new 0 0 344.872 277.104"
	 xml:space="preserve">
<g>
	<path d="M3.105,21.705h23.048l19.365,53.938l0.238-0.237c-0.951-10.336-2.732-20.553-2.732-30.89V21.705H66.31v89.579H43.024
		l-18.059-51.68l-0.237,0.238c0.594,8.435,1.663,16.751,1.663,25.187v26.256H3.105V21.705z"/>
	<path d="M197.343,111.284V43.565h-13.307v-21.86h51.443v21.86h-13.9v67.719H197.343z"/>
	<path d="M244.033,111.284V21.705h24.236v89.579H244.033z"/>
	<path d="M276.583,111.284V21.705h42.771v21.147H300.82v12.95h17.346v21.147H300.82v34.334H276.583z"/>
</g>
<g>
	<path d="M98.415,227.854l-0.882,21.83H3.708c0.954-19.978,1.433-42.502,1.433-67.573c0-24.078-0.479-44.618-1.433-61.62h89.524
		l-1.213,21.731c-22.05-1.058-42.043-1.588-59.977-1.588c0.734,9.195,1.103,20.044,1.103,32.546c15.361,0,31.789-0.362,49.282-1.091
		v20.738c-17.199-0.661-33.626-0.992-49.282-0.992c0,13.43,0.293,25.997,0.882,37.706C54.166,229.541,75.628,228.979,98.415,227.854
		z"/>
	<path d="M218.986,120.491c0,2.713-4.189,10.022-12.568,21.929c-12.863,18.192-20.691,29.504-23.484,33.936
		c-8.379,13.43-12.568,23.385-12.568,29.867c0,14.554,0.441,29.041,1.323,43.461h-31.312c0.808-14.487,1.213-29.073,1.213-43.759
		c0-6.747-3.859-16.968-11.577-30.661c-3.602-6.351-10.805-17.694-21.609-34.034c-7.717-11.709-11.576-18.621-11.576-20.739h34.619
		c0,2.381,4.612,12.42,13.837,30.116c9.223,17.696,13.836,29.122,13.836,34.282h1.765c0-4.763,4.501-15.611,13.506-32.546
		c9.003-16.934,13.505-27.551,13.505-31.852H218.986z"/>
	<path d="M319.491,227.854l-0.882,21.83h-93.824c0.955-19.978,1.434-42.502,1.434-67.573c0-24.078-0.479-44.618-1.434-61.62h89.524
		l-1.213,21.731c-22.05-1.058-42.044-1.588-59.977-1.588c0.733,9.195,1.103,20.044,1.103,32.546c15.361,0,31.788-0.362,49.282-1.091
		v20.738c-17.199-0.661-33.627-0.992-49.282-0.992c0,13.43,0.293,25.997,0.882,37.706
		C275.243,229.541,296.706,228.979,319.491,227.854z"/>
</g>
<path fill="#FFFFFF" d="M127.557,130.146c-35.88,0-65.071-29.191-65.071-65.072C62.485,29.192,91.676,0,127.557,0
	c35.881,0,65.074,29.192,65.074,65.074C192.63,100.955,163.438,130.146,127.557,130.146z"/>
<path fill="#8DC63F" d="M190.048,64.852c0,34.509-27.98,62.488-62.491,62.488c-34.509,0-62.488-27.979-62.488-62.488
	c0-34.512,27.979-62.49,62.488-62.49C162.068,2.362,190.048,30.34,190.048,64.852z"/>
<path fill="#FFFFFF" d="M104.926,29.995c3.326-0.84,4.259-0.84,7.604-1.073c6.661-0.464,13.299,0.142,19.724,1.971
	c22.4,6.377,31.811,28.37,34.762,49.698c0.792,5.728,9.463,3.281,8.678-2.393c-3.372-24.375-15.081-47.427-39.655-55.556
	c-10.38-3.434-22.838-4.019-33.505-1.326C96.909,22.736,99.296,31.416,104.926,29.995L104.926,29.995z"/>
<path fill="#FFFFFF" d="M102.33,50.775c2.641-0.664,2.757-0.582,5.506-0.77c4.789-0.327,9.526,0.108,14.151,1.391
	c16.488,4.573,23.182,20.837,25.372,36.416c0.805,5.728,9.476,3.281,8.679-2.393c-2.618-18.629-11.602-35.949-30.271-42.275
	c-7.978-2.703-17.619-3.113-25.829-1.048C94.311,43.511,96.699,52.191,102.33,50.775L102.33,50.775z"/>
<path fill="#FFFFFF" d="M98.84,69.38c4.208-1.051,9.075-0.77,13.371,0.365c11.547,3.049,16.194,14.381,17.759,25.205
	c0.552,3.817,6.333,2.188,5.786-1.595c-1.846-12.77-7.837-24.468-20.558-28.968c-5.518-1.952-12.255-2.216-17.953-0.793
	C93.493,64.531,95.085,70.318,98.84,69.38L98.84,69.38z"/>
<circle fill="#FFFFFF" cx="104.219" cy="94.042" r="12.544"/>
<g>
	<path d="M13.657,263.507c0,1.952-0.725,3.394-2.175,4.325c-1.45,0.931-3.229,1.396-5.336,1.396c-0.384,0-0.658-0.008-0.821-0.024
		c0,1.535,0.044,3.562,0.135,6.077H2.017c0.106-2.36,0.16-5.142,0.16-8.344c0-2.941-0.053-5.478-0.16-7.609h2.132
		c0.302,0,0.882-0.012,1.74-0.037c0.858-0.024,1.601-0.036,2.23-0.036c1.552,0,2.863,0.352,3.933,1.054
		C13.122,261.011,13.657,262.077,13.657,263.507z M10.496,264.181c0-1.748-1.16-2.622-3.479-2.622c-0.58,0-1.193,0.061-1.838,0.184
		c0.09,1.544,0.135,3.292,0.135,5.244c0.204,0.017,0.441,0.024,0.71,0.024C9.005,267.011,10.496,266.067,10.496,264.181z"/>
	<path d="M33.246,267.011c0,2.508-0.768,4.587-2.303,6.236c-1.536,1.65-3.435,2.476-5.698,2.476c-2.156,0-3.962-0.758-5.416-2.273
		c-1.454-1.515-2.181-3.44-2.181-5.777c0-2.507,0.768-4.586,2.304-6.236c1.536-1.649,3.435-2.475,5.697-2.475
		c2.157,0,3.962,0.755,5.416,2.267C32.519,262.738,33.246,264.666,33.246,267.011z M29.864,267.366c0-1.707-0.437-3.092-1.311-4.154
		c-0.874-1.062-1.952-1.593-3.234-1.593c-1.193,0-2.206,0.535-3.039,1.605c-0.833,1.07-1.25,2.422-1.25,4.056
		c0,1.699,0.439,3.081,1.317,4.147c0.878,1.066,1.954,1.599,3.229,1.599c1.192,0,2.206-0.537,3.039-1.611
		C29.448,270.342,29.864,268.991,29.864,267.366z"/>
	<path d="M59.563,259.328c0,0.76-0.817,3.455-2.451,8.087s-2.451,7.254-2.451,7.866h-3.235c0-0.646-0.494-2.463-1.482-5.452
		c-1.054-3.202-1.646-5.313-1.776-6.335h-0.208c-0.131,1.029-0.678,3.157-1.642,6.384c-0.898,3.014-1.348,4.815-1.348,5.403h-3.308
		c0-0.768-0.805-3.5-2.414-8.197c-1.609-4.696-2.414-7.282-2.414-7.756h3.884c0,0.515,0.465,2.565,1.396,6.151
		s1.397,5.714,1.397,6.383h0.196c0-0.669,0.498-2.759,1.495-6.267c0.997-3.509,1.495-5.598,1.495-6.268h3.492
		c0,0.612,0.498,2.738,1.495,6.378c0.997,3.639,1.495,5.691,1.495,6.156h0.196c0-0.588,0.451-2.585,1.354-5.991
		c0.902-3.406,1.354-5.587,1.354-6.543H59.563z"/>
	<path d="M74.497,272.586l-0.098,2.695H63.971c0.106-2.467,0.16-5.248,0.16-8.344c0-2.974-0.053-5.51-0.16-7.609h9.949l-0.135,2.684
		c-2.45-0.131-4.672-0.196-6.665-0.196c0.082,1.136,0.122,2.476,0.122,4.019c1.708,0,3.533-0.044,5.477-0.135v2.562
		c-1.911-0.082-3.737-0.123-5.477-0.123c0,1.658,0.033,3.21,0.098,4.656C69.579,272.794,71.964,272.725,74.497,272.586z"/>
	<path d="M92.628,275.281h-3.627c-0.947-2.892-1.674-4.677-2.181-5.354c-0.507-0.678-1.323-1.017-2.451-1.017
		c-0.474,0-0.927,0.004-1.36,0.012c0,2.1,0.037,4.22,0.11,6.359h-3.406c0.106-2.467,0.16-5.248,0.16-8.344
		c0-2.974-0.053-5.51-0.16-7.609h2.12c0.245,0,0.757-0.012,1.538-0.037c0.78-0.024,1.501-0.036,2.163-0.036
		c3.75,0,5.624,1.282,5.624,3.848c0,2.033-1.07,3.451-3.21,4.251v0.184c0.825,0.229,1.548,0.872,2.169,1.931
		C90.737,270.525,91.574,272.463,92.628,275.281z M88.033,264.009c0-1.625-1.046-2.438-3.137-2.438
		c-0.768,0-1.446,0.058-2.034,0.172c0.089,1.266,0.135,2.916,0.135,4.95c0.449,0.017,0.829,0.024,1.139,0.024
		C86.734,266.717,88.033,265.814,88.033,264.009z"/>
	<path d="M107.696,272.586l-0.098,2.695H97.171c0.106-2.467,0.16-5.248,0.16-8.344c0-2.974-0.053-5.51-0.16-7.609h9.949
		l-0.135,2.684c-2.45-0.131-4.672-0.196-6.665-0.196c0.082,1.136,0.122,2.476,0.122,4.019c1.708,0,3.533-0.044,5.477-0.135v2.562
		c-1.911-0.082-3.737-0.123-5.477-0.123c0,1.658,0.033,3.21,0.098,4.656C102.779,272.794,105.164,272.725,107.696,272.586z"/>
	<path d="M126.391,266.753c0,2.32-0.743,4.346-2.23,6.078c-1.487,1.731-3.569,2.598-6.249,2.598c-1.209,0-2.875-0.05-5-0.147
		c0.106-2.467,0.16-5.248,0.16-8.344c0-2.974-0.053-5.51-0.16-7.609h2.145c0.351,0,0.874-0.012,1.568-0.037
		c0.694-0.024,1.147-0.036,1.36-0.036c2.949,0,5.087,0.735,6.415,2.205C125.728,262.931,126.391,264.695,126.391,266.753z
		 M123.046,267.28c0-1.568-0.458-2.89-1.373-3.964c-0.915-1.074-2.312-1.611-4.19-1.611c-0.351,0-0.833,0.037-1.446,0.11
		c0.082,1.634,0.123,3.341,0.123,5.122c0,1.952,0.041,3.888,0.123,5.808c0.531,0.106,1.062,0.159,1.593,0.159
		c1.756,0,3.057-0.545,3.903-1.636C122.624,270.178,123.046,268.849,123.046,267.28z"/>
	<path d="M151.848,270.479c0,3.251-2.659,4.876-7.977,4.876c-0.923,0-2.36-0.024-4.313-0.073c0.106-2.467,0.16-5.248,0.16-8.344
		c0-2.974-0.053-5.51-0.16-7.609h1.985c0.375,0,1.006-0.012,1.893-0.037c0.886-0.024,1.578-0.036,2.077-0.036
		c3.619,0,5.428,1.176,5.428,3.528c0,1.813-0.927,3.015-2.781,3.603v0.184c0.988,0.155,1.85,0.541,2.585,1.158
		S151.848,269.261,151.848,270.479z M147.645,263.751c0-1.462-0.915-2.192-2.745-2.192c-0.841,0-1.589,0.061-2.242,0.184
		c0.09,0.825,0.135,2.242,0.135,4.252c0.311,0.016,0.637,0.024,0.98,0.024C146.354,266.019,147.645,265.263,147.645,263.751z
		 M148.54,270.613c0-1.626-1.425-2.438-4.276-2.438c-0.563,0-1.049,0.021-1.458,0.062c0,1.707,0.037,3.279,0.11,4.717
		c0.278,0.065,0.694,0.098,1.25,0.098c1.511,0,2.618-0.182,3.32-0.545S148.54,271.512,148.54,270.613z"/>
	<path d="M169.011,259.328c0,0.335-0.465,1.237-1.396,2.708c-1.43,2.246-2.299,3.644-2.609,4.19
		c-0.932,1.658-1.397,2.888-1.397,3.688c0,1.797,0.05,3.586,0.147,5.366h-3.48c0.09-1.789,0.135-3.59,0.135-5.403
		c0-0.833-0.428-2.096-1.286-3.786c-0.4-0.784-1.2-2.186-2.401-4.203c-0.858-1.445-1.287-2.299-1.287-2.561h3.847
		c0,0.294,0.513,1.534,1.538,3.719c1.024,2.186,1.538,3.597,1.538,4.233h0.195c0-0.588,0.5-1.928,1.501-4.019
		c1.001-2.092,1.501-3.402,1.501-3.934H169.011z"/>
	<path d="M192.533,259.328l-0.086,2.635c-1.635-0.123-3.174-0.185-4.619-0.185c-0.018,1.544-0.025,3.264-0.025,5.159
		c0,2.94,0.045,5.722,0.135,8.344h-3.431c0.106-2.598,0.159-5.379,0.159-8.344c0-1.862-0.016-3.582-0.049-5.159
		c-1.152,0-2.732,0.065-4.742,0.196l0.099-2.646H192.533z"/>
	<path d="M207.6,272.586l-0.098,2.695h-10.427c0.105-2.467,0.159-5.248,0.159-8.344c0-2.974-0.054-5.51-0.159-7.609h9.949
		l-0.135,2.684c-2.451-0.131-4.673-0.196-6.666-0.196c0.082,1.136,0.123,2.476,0.123,4.019c1.707,0,3.532-0.044,5.477-0.135v2.562
		c-1.911-0.082-3.737-0.123-5.477-0.123c0,1.658,0.032,3.21,0.098,4.656C202.683,272.794,205.068,272.725,207.6,272.586z"/>
	<path d="M231.234,275.281h-3.566c0-1.389-0.085-3.73-0.257-7.027c-0.172-3.296-0.262-5.352-0.27-6.169h-0.184
		c-0.082,0.49-0.299,1.396-0.649,2.721c-0.352,1.323-1.011,3.273-1.979,5.851c-0.968,2.577-1.451,4.118-1.451,4.625h-2.708
		c0-0.522-0.464-2.079-1.391-4.668c-0.928-2.59-1.534-4.403-1.819-5.44c-0.286-1.037-0.515-2.066-0.687-3.088h-0.184
		c-0.009,1.021-0.108,3.21-0.301,6.567c-0.191,3.357-0.288,5.567-0.288,6.629h-3.234c0-0.245,0.296-2.699,0.889-7.364
		c0.592-4.664,0.888-7.526,0.888-8.589h4.742c0,0.915,0.5,2.933,1.501,6.053c1.001,3.121,1.501,5.118,1.501,5.992h0.184
		c0-0.883,0.57-2.884,1.709-6.004c1.14-3.12,1.71-5.134,1.71-6.041h4.705c0,1.691,0.189,4.707,0.569,9.049
		S231.234,275.02,231.234,275.281z"/>
	<path d="M248.642,263.507c0,1.952-0.725,3.394-2.175,4.325c-1.45,0.931-3.229,1.396-5.336,1.396c-0.384,0-0.657-0.008-0.821-0.024
		c0,1.535,0.045,3.562,0.135,6.077h-3.442c0.105-2.36,0.159-5.142,0.159-8.344c0-2.941-0.054-5.478-0.159-7.609h2.132
		c0.302,0,0.882-0.012,1.74-0.037c0.857-0.024,1.601-0.036,2.229-0.036c1.552,0,2.863,0.352,3.934,1.054
		C248.107,261.011,248.642,262.077,248.642,263.507z M245.481,264.181c0-1.748-1.16-2.622-3.479-2.622
		c-0.58,0-1.193,0.061-1.838,0.184c0.09,1.544,0.135,3.292,0.135,5.244c0.204,0.017,0.441,0.024,0.711,0.024
		C243.991,267.011,245.481,266.067,245.481,264.181z"/>
	<path d="M264.618,259.328l-0.086,2.635c-1.634-0.123-3.174-0.185-4.619-0.185c-0.017,1.544-0.024,3.264-0.024,5.159
		c0,2.94,0.045,5.722,0.135,8.344h-3.431c0.105-2.598,0.159-5.379,0.159-8.344c0-1.862-0.017-3.582-0.049-5.159
		c-1.152,0-2.732,0.065-4.742,0.196l0.098-2.646H264.618z"/>
	<path d="M282.075,275.281h-3.627c-0.947-2.892-1.675-4.677-2.181-5.354c-0.507-0.678-1.323-1.017-2.45-1.017
		c-0.475,0-0.928,0.004-1.36,0.012c0,2.1,0.036,4.22,0.11,6.359h-3.406c0.105-2.467,0.159-5.248,0.159-8.344
		c0-2.974-0.054-5.51-0.159-7.609h2.119c0.245,0,0.758-0.012,1.538-0.037c0.78-0.024,1.501-0.036,2.162-0.036
		c3.75,0,5.624,1.282,5.624,3.848c0,2.033-1.069,3.451-3.21,4.251v0.184c0.825,0.229,1.548,0.872,2.169,1.931
		C280.184,270.525,281.021,272.463,282.075,275.281z M277.48,264.009c0-1.625-1.046-2.438-3.137-2.438
		c-0.768,0-1.445,0.058-2.034,0.172c0.09,1.266,0.135,2.916,0.135,4.95c0.449,0.017,0.829,0.024,1.14,0.024
		C276.181,266.717,277.48,265.814,277.48,264.009z"/>
	<path d="M300.525,275.281h-3.921c0-0.539-0.371-2.066-1.114-4.582h-5.661c-0.768,2.475-1.151,4.002-1.151,4.582h-3.688
		c0-0.318,0.954-2.933,2.861-7.842s2.86-7.613,2.86-8.111h4.632c0,0.466,0.864,3.131,2.592,7.995S300.525,274.84,300.525,275.281z
		 M294.865,268.358c-1.397-4.215-2.096-6.494-2.096-6.837h-0.196c0,0.318-0.723,2.598-2.168,6.837H294.865z"/>
	<path d="M317.824,275.281h-4.007c0-0.376-0.69-1.67-2.07-3.884c-1.471-2.361-2.512-3.541-3.125-3.541h-0.367
		c0,1.862,0.045,4.337,0.135,7.425h-3.455c0.105-2.467,0.159-5.248,0.159-8.344c0-2.974-0.054-5.51-0.159-7.609h3.455
		c-0.09,2.263-0.135,4.387-0.135,6.371h0.27c0.359,0,1.266-1.004,2.72-3.014c1.413-1.952,2.12-3.071,2.12-3.357h3.651
		c0,0.27-0.747,1.287-2.242,3.051c-1.544,1.822-2.671,2.981-3.382,3.48v0.184c0.833,0.433,2.145,2.046,3.933,4.84
		C316.991,273.48,317.824,274.946,317.824,275.281z"/>
</g>
<g>
	<path d="M325.05,23.91h-3.403v-1.229h8.284v1.229h-3.42v9.961h-1.461V23.91z"/>
	<path d="M340.609,28.957c-0.083-1.561-0.183-3.437-0.166-4.831h-0.05c-0.382,1.312-0.847,2.706-1.411,4.25l-1.976,5.429h-1.096
		l-1.81-5.329c-0.531-1.577-0.979-3.021-1.295-4.35h-0.033c-0.033,1.395-0.116,3.271-0.216,4.947l-0.299,4.798h-1.378l0.78-11.189
		h1.843l1.909,5.412c0.465,1.378,0.847,2.606,1.129,3.769h0.05c0.282-1.129,0.681-2.357,1.179-3.769l1.992-5.412h1.843l0.697,11.189
		h-1.411L340.609,28.957z"/>
</g>
</svg>
