<?xml version="1.0" encoding="utf-8"?>
<!-- Generator: Adobe Illustrator 16.0.0, SVG Export Plug-In . SVG Version: 6.00 Build 0)  -->
<!DOCTYPE svg PUBLIC "-//W3C//DTD SVG 1.0//EN" "http://www.w3.org/TR/2001/REC-SVG-20010904/DTD/svg10.dtd">
<svg version="1.0" id="Blue" xmlns="http://www.w3.org/2000/svg" xmlns:xlink="http://www.w3.org/1999/xlink" x="0px" y="0px"
	 width="300px" height="436.364px" viewBox="0 0 300 436.364" enable-background="new 0 0 300 436.364" xml:space="preserve">
<g>
	<path fill="#1CA8DD" d="M297.5,150.758c-2.128,145.979-147.233,282.424-147.233,282.424C122.909,408.855,4.63,296.736,2.5,150.758
		C2.5,69.252,68.535,3.182,149.999,3.182S297.5,69.252,297.5,150.758z"/>
	<path fill="#1C8ADD" d="M297.5,150.758c0-81.506-66.037-147.576-147.501-147.576c-0.755,0-1.499,0.044-2.25,0.056
		c-18.044,89.104-26.107,322.713,1.961,429.445c0.176,0.154,0.389,0.348,0.557,0.498C150.267,433.182,295.372,296.736,297.5,150.758
		z"/>
	<path fill="#1C7BDD" d="M277.781,150.758c0,70.604-57.21,127.842-127.782,127.842S22.217,221.361,22.217,150.758
		c0-70.607,57.21-127.85,127.782-127.85S277.781,80.15,277.781,150.758z"/>
	<path fill="#FFFFFF" d="M273.182,150.758c0,68.064-55.149,123.24-123.183,123.24S26.816,218.822,26.816,150.758
		c0-68.068,55.149-123.249,123.183-123.249S273.182,82.689,273.182,150.758z"/>
</g>
</svg>
