<?xml version="1.0" encoding="utf-8"?>
<!-- Generator: Adobe Illustrator 16.0.0, SVG Export Plug-In . SVG Version: 6.00 Build 0)  -->
<!DOCTYPE svg PUBLIC "-//W3C//DTD SVG 1.0//EN" "http://www.w3.org/TR/2001/REC-SVG-20010904/DTD/svg10.dtd">
<svg version="1.0" id="Green" xmlns="http://www.w3.org/2000/svg" xmlns:xlink="http://www.w3.org/1999/xlink" x="0px" y="0px"
	 width="300px" height="436.364px" viewBox="0 0 300 436.364" enable-background="new 0 0 300 436.364" xml:space="preserve">
<g>
	<path fill="#33B86C" d="M297.5,150.758c-2.127,145.977-147.233,282.424-147.233,282.424C122.91,408.855,4.63,296.734,2.5,150.758
		C2.5,69.252,68.535,3.182,150,3.182C231.463,3.182,297.5,69.252,297.5,150.758z"/>
	<path fill="#33996C" d="M297.5,150.758C297.5,69.252,231.463,3.182,150,3.182c-0.755,0-1.499,0.044-2.25,0.056
		c-18.044,89.102-26.107,322.713,1.96,429.446c0.175,0.156,0.39,0.348,0.557,0.498C150.267,433.182,295.373,296.734,297.5,150.758z"
		/>
	<path fill="#33856C" d="M277.781,150.758c0,70.604-57.209,127.842-127.782,127.842c-70.573,0-127.782-57.238-127.782-127.842
		C22.217,80.148,79.427,22.907,150,22.907C220.572,22.907,277.781,80.148,277.781,150.758z"/>
	<path fill="#FFFFFF" d="M273.182,150.758c0,68.064-55.149,123.24-123.183,123.24c-68.034,0-123.183-55.176-123.183-123.24
		c0-68.068,55.149-123.25,123.183-123.25C218.033,27.508,273.182,82.689,273.182,150.758z"/>
</g>
</svg>
